<svg width="42" height="46" viewBox="0 0 42 46" fill="none" xmlns="http://www.w3.org/2000/svg">
<path d="M40.5662 35.6437C41.0581 35.3388 41.2072 34.6975 40.8994 34.2103L37.8086 29.3131L37.8149 29.1999C38.5067 18.8082 31.6141 10.1516 30.8271 9.19606L30.8049 9.16463C29.6434 7.40439 27.4062 6.76945 25.8226 7.75015C25.4926 7.95447 25.2006 8.22793 24.9595 8.55798L24.7405 8.85659L24.4517 8.62713C23.1062 7.55213 21.3132 7.37925 19.9899 8.19964C19.4949 8.50769 19.0919 8.92889 18.7967 9.45696L18.6127 9.787L18.2953 9.57955C16.9466 8.69314 15.3695 8.59884 14.1858 9.33123C13.8367 9.54811 13.5289 9.83415 13.275 10.1862L12.9704 10.6074L7.84217 2.47572C6.65532 0.596033 4.24036 -0.0357673 2.45691 1.06753C0.673466 2.17082 0.187941 4.59744 1.37479 6.47712L10.1207 20.339L10.0128 20.5213C10.0033 20.5402 9.99056 20.5559 9.96834 20.5873C9.87314 20.7822 7.62955 25.3903 9.34001 30.2592C10.9172 34.7541 19.5107 38.7115 21.2149 39.4596L21.3132 39.5036L24.4136 44.4166C24.7215 44.9038 25.3688 45.0515 25.8607 44.7466" fill="white"/>
<path d="M31.1285 8.98861L31.1063 8.95718C29.9226 7.16236 27.6442 6.51484 26.0289 7.51441C25.6925 7.72186 25.3974 7.99847 25.1499 8.33481L24.9277 8.6397L24.6326 8.40396C23.2617 7.31009 21.437 7.13407 20.0883 7.97018C19.5837 8.28451 19.1744 8.71514 18.8729 9.2495L18.6857 9.58584L18.362 9.37523C16.9879 8.47311 15.3822 8.37567 14.1763 9.12377C13.8209 9.3438 13.5099 9.63613 13.2496 9.99446L12.9386 10.4251L7.71207 2.14253C6.50301 0.228268 4.04361 -0.416106 2.22843 0.709191C0.413249 1.83449 -0.0817926 4.30511 1.1241 6.21937L10.0318 20.339L9.92076 20.5245C9.91124 20.5433 9.89854 20.5622 9.87632 20.5905C9.77795 20.7885 7.4931 25.4846 9.2353 30.4415C10.8442 35.0182 19.5964 39.051 21.3323 39.8117L21.4338 39.8557L24.5914 44.8598C24.9023 45.3564 25.5656 45.5073 26.0638 45.1961C26.562 44.8849 26.7175 44.2311 26.4034 43.7376L22.8904 38.1677L22.5794 38.0389C18.6127 36.3761 12.3262 32.7927 11.2536 29.7437C10.3967 27.3045 10.7395 24.8811 11.1742 23.2748L11.3869 22.489L14.2493 27.0279C14.5602 27.5246 15.2235 27.6754 15.7217 27.3643C16.2199 27.0531 16.3754 26.3993 16.0613 25.9058L2.93294 5.09408C2.35855 4.18567 2.55213 2.9975 3.355 2.50086C4.15787 2.00422 5.31933 2.35313 5.89372 3.26154L16.1819 19.5689C16.4929 20.0656 17.1561 20.2164 17.6543 19.9052C18.1525 19.5941 18.308 18.9403 17.9939 18.4468L15.1505 13.9393C14.3572 12.682 14.5888 11.3649 15.306 10.9217C16.0232 10.4785 17.3179 10.8494 18.1113 12.1067L21.2847 17.1392C21.5957 17.6358 22.2589 17.7867 22.7571 17.4755C23.2554 17.1643 23.4108 16.5105 23.0967 16.017L20.8975 12.528C20.266 11.5284 20.412 10.2648 21.2149 9.76814C22.0177 9.2715 23.2173 9.67699 23.8583 10.6954L27.1904 15.9761C27.5014 16.4728 28.1646 16.6237 28.6628 16.3125C29.1611 16.0013 29.3166 15.3475 29.0024 14.854L26.9651 11.6258C26.3685 10.6797 26.5811 9.66756 27.1523 9.31237C27.7235 8.95718 28.7358 9.21492 29.3324 10.1611C29.3578 10.2019 29.3895 10.2428 29.4181 10.2805C29.4943 10.3685 36.9739 19.3457 36.0664 29.6526C36.0473 29.8789 36.1013 30.1115 36.225 30.3064L39.5603 35.5934C39.8713 36.09 40.5345 36.2409 41.0327 35.9297C41.5309 35.6185 41.6864 34.9647 41.3723 34.4712L38.2243 29.4828L38.2306 29.3697C38.9351 18.7831 31.9156 9.96303 31.1127 8.99489L31.1285 8.98861Z" fill="#424242"/>
</svg>
